<svg width="20" height="20" viewBox="0 0 20 20" fill="none" xmlns="http://www.w3.org/2000/svg">
<g clip-path="url(#clip0_63_549)">
<path d="M20 8.88055C20 10.0289 19.8165 11.0823 19.4535 12.0357C19.0861 12.9934 18.5654 13.7354 17.8994 14.2621C17.233 14.7884 16.4644 15.0498 15.5976 15.0498C14.8805 15.0498 14.2785 14.8384 13.7831 14.4196C13.2922 13.9968 13.0016 13.4576 12.9078 12.8027H12.8097C12.4765 13.5076 11.9984 14.0589 11.3746 14.4571C10.7557 14.8505 10.0173 15.0498 9.1674 15.0498C7.9163 15.0498 6.93843 14.6349 6.2338 13.8061C5.52958 12.9766 5.17907 11.8493 5.17907 10.4228C5.17907 8.77271 5.67042 7.42938 6.65231 6.39706C7.63863 5.36475 8.93239 4.85054 10.5336 4.85054C11.0974 4.85054 11.7421 4.90056 12.4596 5.0041C13.1767 5.10374 13.8217 5.24479 14.398 5.42297L14.0861 11.1277V11.393C14.0861 12.8355 14.6414 13.5572 15.7473 13.5572C16.5074 13.5572 17.1264 13.1219 17.6004 12.251C18.0744 11.3805 18.3135 10.2489 18.3135 8.85594C18.3135 7.38796 18.006 6.10714 17.3867 5.0041C16.7718 3.90146 15.8926 3.05552 14.7521 2.45848C13.6165 1.86574 12.3099 1.56723 10.8326 1.56723C8.97103 1.56723 7.35252 1.94037 5.97787 2.69058C4.60282 3.44118 3.55252 4.511 2.82656 5.89966C2.1006 7.28832 1.73803 8.89306 1.73803 10.717C1.73803 13.1884 2.40805 15.0869 3.75332 16.4178C5.09416 17.7447 7.02817 18.4078 9.55573 18.4078C11.3066 18.4078 13.1256 18.0596 15.0085 17.363V18.9798C13.4072 19.6601 11.5924 20 9.55573 20C6.52837 20 4.18028 19.1912 2.50624 17.5743C0.832596 15.9618 0 13.7022 0 10.8002C0 8.69417 0.444266 6.82022 1.33642 5.17407C2.22897 3.53261 3.50141 2.2596 5.15372 1.35584C6.80201 0.452077 8.69779 0 10.8326 0C12.6258 0 14.2185 0.364944 15.6193 1.09874C17.0153 1.83253 18.0954 2.87305 18.8555 4.22069C19.6201 5.56793 20 7.12265 20 8.88055ZM7.0664 10.4728C7.0664 12.5288 7.87807 13.5572 9.50463 13.5572C11.2338 13.5572 12.169 12.2885 12.3187 9.7554L12.4978 6.58774C11.8958 6.42598 11.2427 6.34314 10.5336 6.34314C9.4491 6.34314 8.5996 6.70808 7.98471 7.43797C7.37384 8.16317 7.0664 9.17907 7.0664 10.4728Z" fill="white"/>
</g>
<defs>
<clipPath id="clip0_63_549">
<rect width="20" height="20" fill="white"/>
</clipPath>
</defs>
</svg>
