<svg width="63" height="50" viewBox="0 0 63 50" fill="none" xmlns="http://www.w3.org/2000/svg">
<path d="M29.7216 41.6866C29.6354 41.4801 29.5925 41.2566 29.5925 41.0189C29.5925 40.7807 29.6354 40.5578 29.7216 40.3507C29.8068 40.1452 29.9348 39.9569 30.1052 39.7871L30.1057 39.7866L30.1062 39.7861C30.2761 39.6162 30.4648 39.4877 30.6698 39.402C30.8769 39.3163 31.0998 39.2729 31.3381 39.2729C31.5778 39.2729 31.8012 39.3163 32.0088 39.402C32.2113 39.4861 32.3975 39.6111 32.5653 39.7774C32.5684 39.7799 32.5714 39.783 32.5745 39.7861C32.7449 39.9559 32.8724 40.1441 32.9586 40.3507C33.0448 40.5573 33.0882 40.7807 33.0882 41.0189C33.0882 41.2566 33.0448 41.4795 32.9586 41.6866C32.8729 41.8927 32.7449 42.0809 32.5745 42.2508C32.4036 42.4222 32.2144 42.5517 32.0073 42.6385C31.8007 42.7247 31.5773 42.7685 31.3381 42.7685C31.1004 42.7685 30.8774 42.7247 30.6714 42.6379C30.4694 42.5533 30.2832 42.4273 30.1149 42.2605C30.1118 42.2579 30.1088 42.2549 30.1052 42.2513C29.9353 42.0814 29.8073 41.8932 29.7216 41.6866ZM32.3598 2.60806C32.2751 2.47136 32.1659 2.37087 32.0318 2.30558C31.8604 2.22193 31.6293 2.18061 31.3391 2.18061C31.0488 2.18061 30.8183 2.22193 30.6469 2.30558C30.5127 2.37087 30.4031 2.47187 30.3189 2.60806C30.3113 2.6203 30.3036 2.63255 30.2954 2.64428L2.92329 45.5806C2.76925 45.8301 2.63459 46.1198 2.51778 46.4498C2.39383 46.8028 2.29181 47.1976 2.21173 47.6342C2.19999 47.698 2.19132 47.7597 2.18622 47.8189H60.4924C60.4873 47.7597 60.4792 47.698 60.4669 47.6342C60.3868 47.1976 60.2853 46.8028 60.1609 46.4498C60.0441 46.1198 59.9094 45.8301 59.7554 45.5806L59.7498 45.5714L32.3689 2.62081L32.3598 2.60806ZM32.9775 0.346347C33.4906 0.595779 33.9002 0.96865 34.2083 1.467L61.581 44.4034C61.5891 44.4151 61.5968 44.4273 61.6044 44.4396C61.8431 44.8252 62.0456 45.2567 62.214 45.7347C62.3741 46.1902 62.5042 46.6926 62.6057 47.2425C62.6552 47.5077 62.6792 47.7424 62.6792 47.9489C62.6792 48.4488 62.5568 48.8727 62.3134 49.218C62.0334 49.6154 61.6366 49.8628 61.1249 49.9571C60.9719 49.9857 60.824 50 60.6801 50H1.99902C1.85518 50 1.70725 49.9857 1.55423 49.9571C1.04261 49.8623 0.645257 49.6154 0.365731 49.218C0.12293 48.8727 0 48.4488 0 47.9489C0 47.7429 0.024484 47.5077 0.0739622 47.2425C0.174959 46.6926 0.30503 46.1902 0.465707 45.7347C0.634035 45.2562 0.837049 44.8252 1.07526 44.4396L1.07577 44.4401L1.08393 44.4268L28.4653 1.47618L28.4709 1.467C28.779 0.96865 29.1886 0.595779 29.7017 0.346347C30.1776 0.115279 30.7229 0 31.3396 0C31.9563 0 32.5016 0.115279 32.9775 0.346347ZM32.4225 37.0418C32.4205 37.4524 32.1317 37.7116 31.7619 37.8228C31.6278 37.8631 31.4834 37.8835 31.3401 37.8835C31.1968 37.8835 31.0524 37.8631 30.9177 37.8228C30.5484 37.7116 30.2592 37.4519 30.2572 37.0418L28.8698 18.9042C28.8698 18.9002 28.8692 18.8961 28.8692 18.892C28.8692 18.4477 29.5308 18.1784 30.3776 18.0733C30.6821 18.0356 31.0111 18.0162 31.3401 18.0162C31.6691 18.0162 31.9981 18.0356 32.3026 18.0733C33.1494 18.1789 33.8104 18.4482 33.8104 18.892C33.8104 18.8996 33.8099 18.9063 33.8094 18.9134L32.4225 37.0418Z" fill="#FF3C3C"/>
</svg>
