<svg width="30" height="30" viewBox="0 0 30 30" fill="none" xmlns="http://www.w3.org/2000/svg">
<g clip-path="url(#clip0_29_788)">
<path d="M15 0C23.2843 0 30 6.71573 30 15C30 23.2843 23.2843 30 15 30C6.71572 30 0 23.2843 0 15C0 6.71573 6.71572 0 15 0ZM15 20C14.5398 20 14.1667 20.3731 14.1667 20.8333C14.1667 21.2936 14.5398 21.6667 15 21.6667C15.4602 21.6667 15.8333 21.2936 15.8333 20.8333C15.8333 20.3731 15.4602 20 15 20ZM15 8.33333C14.5398 8.33333 14.1667 8.70643 14.1667 9.16667V17.5C14.1667 17.9602 14.5398 18.3333 15 18.3333C15.4602 18.3333 15.8333 17.9602 15.8333 17.5V9.16667C15.8333 8.70643 15.4602 8.33333 15 8.33333Z" fill="#FF3C3C"/>
</g>
<defs>
<clipPath id="clip0_29_788">
<rect width="30" height="30" fill="white"/>
</clipPath>
</defs>
</svg>
