<svg width="35" height="35" viewBox="0 0 35 35" fill="none" xmlns="http://www.w3.org/2000/svg">
<path fill-rule="evenodd" clip-rule="evenodd" d="M32.0834 17.5001C32.0834 25.5542 25.5542 32.0834 17.5001 32.0834C9.44593 32.0834 2.91675 25.5542 2.91675 17.5001C2.91675 9.44593 9.44593 2.91675 17.5001 2.91675C25.5542 2.91675 32.0834 9.44593 32.0834 17.5001ZM23.3776 13.0809C23.8047 13.508 23.8047 14.2005 23.3776 14.6276L16.0859 21.9193C15.6588 22.3464 14.9664 22.3464 14.5392 21.9193L11.6225 19.0026C11.1954 18.5755 11.1954 17.883 11.6225 17.4559C12.0496 17.0287 12.7422 17.0287 13.1693 17.4559L15.3126 19.5991L18.5717 16.34L21.8309 13.0809C22.258 12.6537 22.9505 12.6537 23.3776 13.0809Z" fill="#22C55E"/>
</svg>
