<svg width="25" height="25" viewBox="0 0 25 25" fill="none" xmlns="http://www.w3.org/2000/svg">
<path d="M12.4999 0C15.9516 0 19.0766 1.39913 21.3387 3.6613C23.6009 5.92326 25 9.04846 25 12.5C25 15.9519 23.6009 19.0767 21.3387 21.3387C19.0766 23.6009 15.9516 25 12.4999 25C9.04819 25 5.92321 23.6009 3.66127 21.3387C1.39912 19.0767 0 15.9517 0 12.4998C0 9.04826 1.39912 5.92306 3.66127 3.66109C5.92321 1.39913 9.04819 0 12.4999 0ZM16.3085 7.60274C16.5732 7.33785 17.0026 7.33785 17.2673 7.60274C17.532 7.86743 17.532 8.29671 17.2673 8.56161L13.3283 12.5008L17.2673 16.44C17.532 16.7047 17.532 17.134 17.2673 17.3989C17.0026 17.6636 16.5732 17.6636 16.3085 17.3989L12.3693 13.4597L8.43011 17.3991C8.16542 17.6638 7.73594 17.6638 7.47125 17.3991C7.20657 17.1342 7.20657 16.7049 7.47125 16.4402L11.4106 12.501L7.47125 8.56161C7.20657 8.29671 7.20657 7.86743 7.47125 7.60274C7.73594 7.33785 8.16542 7.33785 8.43011 7.60274L12.3695 11.542L16.3085 7.60274ZM20.3799 4.61995C18.3633 2.60335 15.5773 1.3562 12.4999 1.3562C9.42253 1.3562 6.63671 2.60335 4.62012 4.61995C2.60354 6.63656 1.35619 9.42261 1.35619 12.4998C1.35619 15.5772 2.60354 18.3632 4.61992 20.3798C6.6365 22.3962 9.42233 23.6436 12.4997 23.6436C15.5771 23.6436 18.3631 22.3962 20.3797 20.3798C22.3963 18.3632 23.6436 15.5772 23.6436 12.4998C23.6438 9.42261 22.3965 6.63656 20.3799 4.61995Z" fill="black"/>
</svg>
