<svg width="25" height="25" viewBox="0 0 25 25" fill="none" xmlns="http://www.w3.org/2000/svg">
<g clip-path="url(#clip0_29_627)">
<path fill-rule="evenodd" clip-rule="evenodd" d="M10.8584 13.8453C11.2349 16.0629 11.6923 18.3791 11.9452 18.8556C12.304 19.5306 13.1437 19.7923 13.8202 19.4335C14.4952 19.0747 14.754 18.2321 14.3952 17.5571C14.1423 17.0806 12.482 15.4026 10.8584 13.8453ZM10.2879 11.2879C11.0893 12.0291 15.1173 15.7776 15.6952 16.8688C16.4334 18.26 15.9011 19.9923 14.5084 20.7321C14.0834 20.9571 13.6261 21.0629 13.1761 21.0629C12.1511 21.0629 11.1584 20.5115 10.6452 19.5453C10.0673 18.4541 9.22462 13.0173 9.06139 11.9379C9.0158 11.6291 9.16874 11.3232 9.44374 11.1791C9.72169 11.0321 10.057 11.0747 10.2879 11.2879ZM12.5005 3.67163C19.3931 3.67163 25.0005 9.28045 25.0005 16.1716C25.0005 17.176 24.8843 18.1657 24.6534 19.1128L24.5182 19.6746H17.6902V18.204H23.3446C23.4681 17.5437 23.5299 16.8613 23.5299 16.1716C23.5299 10.0893 18.5814 5.1422 12.5005 5.1422C6.41814 5.1422 1.47109 10.0893 1.47109 16.1716C1.47109 16.8613 1.53286 17.5437 1.65492 18.204H8.00197V19.6746H0.481387L0.3461 19.1128C0.11666 18.1657 0.000488281 17.176 0.000488281 16.1716C0.000488281 9.28045 5.60786 3.67163 12.5005 3.67163ZM19.5649 8.75869L20.6046 9.7984L19.137 11.266L18.0973 10.2263L19.5649 8.75869ZM5.43492 8.75869L6.90256 10.2263L5.86284 11.266L4.39523 9.79838L5.43493 8.75866L5.43492 8.75869ZM13.2352 6.13677V8.21325H11.7646V6.13676L13.2352 6.13677Z" fill="currentColor"/>
</g>
<defs>
<clipPath id="clip0_29_627">
<rect width="25" height="25" fill="currentColor"/>
</clipPath>
</defs>
</svg>
