<svg width="30" height="30" viewBox="0 0 30 30" fill="none" xmlns="http://www.w3.org/2000/svg">
<path fill-rule="evenodd" clip-rule="evenodd" d="M3.44266 0H26.5573C28.452 0 30 1.55042 30 3.44266V26.5573C30 28.4496 28.4496 30 26.5573 30H3.44266C1.55042 30 0 28.452 0 26.5573V3.44266C0 1.54798 1.54798 0 3.44266 0ZM19.8625 6.92927L22.9755 10.0448C23.3857 10.455 23.3857 11.1288 22.9755 11.5366L21.2517 13.2604L16.6444 8.65305L18.3682 6.92927C18.7784 6.51908 19.4498 6.51908 19.8625 6.92927ZM12.7794 21.7254C11.5341 22.1112 10.2865 22.4945 9.03882 22.8827C6.10645 23.7886 6.1211 24.3916 6.91951 21.5716L8.17938 17.1279L8.17449 17.123L15.7728 9.5247L20.3801 14.132L12.7867 21.7278L12.7794 21.7254ZM8.96801 17.9116L11.9932 20.9368C11.1752 21.1882 10.3548 21.4397 9.53447 21.6961C7.61048 22.287 7.62025 22.685 8.14275 20.8318L8.96801 17.9116Z" fill="currentColor"/>
</svg>
