<svg width="35" height="35" viewBox="0 0 35 35" fill="none" xmlns="http://www.w3.org/2000/svg">
<path d="M11.9953 28.3337C13.4515 28.3337 17.4996 28.3337 17.4996 28.3337C17.4996 28.3337 21.5471 28.3337 23.0041 28.3337C24.4595 28.3337 25.1203 26.7202 24.2779 25.5798C23.6434 24.7204 22.6038 23.746 20.9119 23.1926C19.9436 23.7092 18.7671 24.0129 17.4996 24.0129C16.2307 24.0129 15.0558 23.7092 14.0873 23.1926C12.3948 23.746 11.3558 24.7204 10.7207 25.5798C9.87903 26.7202 10.5391 28.3337 11.9953 28.3337Z" fill="#001067"/>
<path d="M17.5002 22.9329C19.9868 22.9329 22.0013 21.3986 22.0013 19.504V18.6826C22.0013 16.7881 19.9869 15.2527 17.5002 15.2527C15.0137 15.2527 12.9985 16.7881 12.9985 18.6826V19.504C12.9985 21.3986 15.0137 22.9329 17.5002 22.9329Z" fill="#001067"/>
<path d="M30.8665 3.88867H24.0626V4.9998C24.0626 7.14391 21.7725 8.88873 18.9584 8.88873H16.0417C13.2276 8.88873 10.9375 7.14391 10.9375 4.9998V3.88867H4.13366C1.85069 3.88867 0 5.29873 0 7.03809V31.8507C0 33.59 1.85069 35.0001 4.13366 35.0001H30.8664C33.1493 35.0001 35 33.59 35 31.8507V7.03809C35.0001 5.29873 33.1494 3.88867 30.8665 3.88867ZM30.6251 31.6667H4.37501V10.2776H30.6251V31.6667Z" fill="#001067"/>
<path d="M16.0416 7.77787H18.9583C20.9686 7.77787 22.6041 6.53166 22.6041 5.00006V2.77781C22.6041 1.2462 20.9685 0 18.9583 0H16.0416C14.0314 0 12.3958 1.2462 12.3958 2.77781V5.00006C12.3958 6.53159 14.0314 7.77787 16.0416 7.77787ZM15.3124 2.77781C15.3124 2.47074 15.6386 2.22225 16.0416 2.22225H18.9583C19.3614 2.22225 19.6874 2.47074 19.6874 2.77781V3.88893C19.6874 4.19601 19.3614 4.44449 18.9583 4.44449H16.0416C15.6386 4.44449 15.3124 4.19601 15.3124 3.88893V2.77781Z" fill="#001067"/>
</svg>
