<svg width="30" height="25" viewBox="0 0 30 25" fill="none" xmlns="http://www.w3.org/2000/svg">
<path d="M23.3716 3.22571C25.9424 5.34137 28.1567 8.40893 29.8364 12.136L30 12.5L29.8364 12.8611C28.1567 16.5881 25.9399 19.6556 23.3716 21.7713C20.8643 23.8362 18.0176 25 15 25C11.9824 25 9.13574 23.8362 6.63086 21.7743C4.05762 19.6556 1.84326 16.5881 0.163574 12.8611L0 12.5L0.163574 12.136C1.84326 8.40893 4.05762 5.34137 6.62842 3.22571C9.13574 1.16376 11.9824 0 15 0C18.0176 0 20.8618 1.16376 23.3716 3.22571ZM14.8413 6.61554L15.8374 6.73192C15.4834 7.38243 15.2734 8.17021 15.2734 9.02065C15.2734 11.2527 16.7041 13.061 18.4717 13.061C19.0381 13.061 19.5703 12.876 20.0317 12.5477C20.0391 12.688 20.0439 12.8282 20.0439 12.9715C20.0439 16.4836 17.7148 19.3304 14.8413 19.3304C11.9678 19.3304 9.63867 16.4836 9.63867 12.9715C9.63867 9.46228 11.9678 6.61554 14.8413 6.61554ZM26.6113 12.5C25.2686 9.61745 23.5327 7.24815 21.5356 5.60396C19.5703 3.98663 17.3486 3.07353 15 3.07353C12.6538 3.07353 10.4321 3.98663 8.4668 5.60396C6.46973 7.24815 4.73389 9.61745 3.38867 12.5C4.73145 15.3825 6.46973 17.7519 8.4668 19.3931C10.4321 21.0104 12.6538 21.9235 15 21.9235C17.3486 21.9235 19.5679 21.0104 21.5356 19.3931C23.5327 17.7519 25.2686 15.3825 26.6113 12.5Z" fill="currentColor"/>
</svg>
