<svg width="26" height="29" viewBox="0 0 26 29" fill="none" xmlns="http://www.w3.org/2000/svg">
<path d="M12.9628 6.33713C13.6703 6.32049 14.2296 5.76152 14.2121 5.08862C14.1945 4.41574 13.607 3.88373 12.8996 3.90037L12.9628 6.33713ZM3.72699 14.5324H5.00824C5.00824 14.5233 5.00813 14.5142 5.00791 14.5049L3.72699 14.5324ZM3.72699 18.2975L3.79378 19.5146C4.47452 19.4808 5.00824 18.9459 5.00824 18.2975H3.72699ZM3.72699 23.3188L3.66019 24.5359C3.68243 24.537 3.70471 24.5375 3.72699 24.5375V23.3188ZM9.04533 24.5375C9.75294 24.5375 10.3265 23.9918 10.3265 23.3188C10.3265 22.6457 9.75294 22.1 9.04533 22.1V24.5375ZM11.65 5.11875C11.65 5.79184 12.2236 6.3375 12.9312 6.3375C13.6388 6.3375 14.2125 5.79184 14.2125 5.11875H11.65ZM14.2125 1.21875C14.2125 0.545659 13.6388 0 12.9312 0C12.2236 0 11.65 0.545659 11.65 1.21875H14.2125ZM12.9628 3.90037C12.2556 3.88373 11.6679 4.41574 11.6503 5.08862C11.6329 5.76152 12.1922 6.32049 12.8996 6.33713L12.9628 3.90037ZM22.1356 14.5324L20.8545 14.5049C20.8543 14.5142 20.8543 14.5233 20.8543 14.5324H22.1356ZM22.1356 18.2975H20.8543C20.8543 18.9459 21.388 19.4808 22.0688 19.5146L22.1356 18.2975ZM22.1356 23.3188V24.5375C22.1578 24.5375 22.18 24.537 22.2024 24.5359L22.1356 23.3188ZM16.8172 22.1C16.1096 22.1 15.5359 22.6457 15.5359 23.3188C15.5359 23.9918 16.1096 24.5375 16.8172 24.5375V22.1ZM10.3248 23.3231C10.3274 22.6501 9.75585 22.1024 9.04824 22.1C8.34063 22.0976 7.76496 22.6413 7.76243 23.3144L10.3248 23.3231ZM10.1813 26.0812L11.1165 25.2481L11.1142 25.246L10.1813 26.0812ZM15.6779 26.0812L14.7448 25.246L14.7427 25.2481L15.6779 26.0812ZM18.0967 23.3144C18.0942 22.6413 17.5184 22.0976 16.8109 22.1C16.1033 22.1024 15.5317 22.6501 15.5342 23.3231L18.0967 23.3144ZM9.042 22.1C8.33438 22.1 7.76075 22.6457 7.76075 23.3188C7.76075 23.9918 8.33438 24.5375 9.042 24.5375V22.1ZM16.8172 24.5375C17.5248 24.5375 18.0984 23.9918 18.0984 23.3188C18.0984 22.6457 17.5248 22.1 16.8172 22.1V24.5375ZM12.8996 3.90037C6.95804 4.04011 2.31078 8.83888 2.44606 14.5598L5.00791 14.5049C4.90302 10.0695 8.49443 6.44221 12.9628 6.33713L12.8996 3.90037ZM2.44574 14.5324V18.2975H5.00824V14.5324H2.44574ZM3.66019 17.0804C1.58106 17.1837 0 18.8481 0 20.8081H2.5625C2.5625 20.0909 3.13213 19.5474 3.79378 19.5146L3.66019 17.0804ZM0 20.8081C0 22.7682 1.58106 24.4325 3.66019 24.5359L3.79378 22.1016C3.13211 22.0688 2.5625 21.5254 2.5625 20.8081H0ZM3.72699 24.5375H9.04533V22.1H3.72699V24.5375ZM14.2125 5.11875V1.21875H11.65V5.11875H14.2125ZM12.8996 6.33713C17.3681 6.44221 20.9594 10.0695 20.8545 14.5049L23.4165 14.5598C23.5518 8.83888 18.9044 4.04011 12.9628 3.90037L12.8996 6.33713ZM20.8543 14.5324V18.2975H23.4168V14.5324H20.8543ZM22.0688 19.5146C22.7304 19.5474 23.3 20.0909 23.3 20.8081H25.8625C25.8625 18.8481 24.2814 17.1837 22.2024 17.0804L22.0688 19.5146ZM23.3 20.8081C23.3 21.5254 22.7304 22.0688 22.0688 22.1016L22.2024 24.5359C24.2814 24.4325 25.8625 22.7682 25.8625 20.8081H23.3ZM22.1356 22.1H16.8172V24.5375H22.1356V22.1ZM7.76243 23.3144C7.75741 24.6524 8.28713 25.9451 9.24825 26.9165L11.1142 25.246C10.6088 24.7349 10.3223 24.0456 10.3248 23.3231L7.76243 23.3144ZM9.24617 26.9144C10.2034 27.8865 11.5326 28.4422 12.9295 28.4422V26.0047C12.252 26.0047 11.5965 25.7356 11.1165 25.2481L9.24617 26.9144ZM12.9295 28.4422C14.3266 28.4422 15.6558 27.8865 16.613 26.9144L14.7427 25.2481C14.2627 25.7356 13.607 26.0047 12.9295 26.0047V28.4422ZM16.6108 26.9165C17.5721 25.9451 18.1017 24.6524 18.0967 23.3144L15.5342 23.3231C15.5369 24.0456 15.2505 24.7349 14.7448 25.246L16.6108 26.9165ZM9.042 24.5375H16.8172V22.1H9.042V24.5375Z" fill="#3E3E3E"/>
</svg>
