<svg width="20" height="20" viewBox="0 0 20 20" fill="none" xmlns="http://www.w3.org/2000/svg">
<path d="M5.50492 8.22647C6.17827 9.44382 6.95318 10.6154 7.9584 11.6834C8.96817 12.7564 10.2185 13.7343 11.8443 14.5633L11.846 14.5641L11.8463 14.5633C11.9648 14.624 12.0776 14.6225 12.1835 14.5826C12.3372 14.5249 12.4972 14.3966 12.6528 14.2414C12.7714 14.1226 12.9202 13.9267 13.081 13.7142C13.707 12.8875 14.4809 11.8656 15.5736 12.374C15.5967 12.3846 15.6185 12.3971 15.639 12.411L19.2805 14.5133C19.2935 14.5208 19.306 14.5288 19.3179 14.5373C19.8007 14.8704 19.9978 15.3833 19.9999 15.9577C20.0022 16.55 19.7836 17.213 19.467 17.7736C19.0495 18.5124 18.4274 19.0007 17.7155 19.3316C17.0368 19.647 16.2835 19.8148 15.5561 19.9218C14.4186 20.0895 13.3462 19.983 12.254 19.6451C11.1879 19.3151 10.1095 18.7642 8.93367 18.0322L8.84806 17.9788C8.30671 17.6419 7.72402 17.2794 7.15712 16.8495C5.06318 15.2612 2.93083 12.9689 1.54817 10.4533C0.384254 8.33557 -0.252635 6.05153 0.0945372 3.87365C0.284806 2.67855 0.79767 1.59369 1.6818 0.875094C2.45687 0.244827 3.50278 -0.0965608 4.8472 0.0239964C5.00556 0.037737 5.13903 0.128523 5.21422 0.256114L5.2152 0.255623L7.54661 4.22567C7.89004 4.67028 7.92812 5.11145 7.74241 5.55C7.58893 5.91282 7.2717 6.24537 6.85113 6.55895C6.72319 6.66528 6.57313 6.77569 6.41834 6.88954C5.89783 7.27248 5.30244 7.71038 5.50492 8.22647ZM7.27056 12.3374C6.19568 11.1953 5.37682 9.9586 4.67044 8.68023C4.65807 8.66011 4.647 8.63885 4.63756 8.61644C4.12095 7.39631 5.04772 6.71484 5.85714 6.11991C5.99467 6.01881 6.12781 5.92083 6.24793 5.82072L6.24825 5.82121C6.25525 5.81532 6.26258 5.8096 6.27023 5.80404C6.5702 5.58255 6.78635 5.37105 6.86887 5.17639C6.9159 5.06532 6.89849 4.94312 6.79302 4.80588C6.77495 4.78478 6.75835 4.76155 6.7437 4.73669L4.52395 0.957211C3.5687 0.917788 2.82813 1.1733 2.28043 1.61872C1.59049 2.17963 1.18618 3.0515 1.0314 4.02316C0.721335 5.96876 1.3107 8.0462 2.38102 9.99377C3.69582 12.3858 5.72986 14.5702 7.73004 16.0871C8.28002 16.5042 8.83292 16.8482 9.3466 17.1678L9.43221 17.2211C10.5419 17.9119 11.5509 18.4293 12.5332 18.7333C13.4895 19.0292 14.4267 19.1226 15.4188 18.9763C16.0713 18.8803 16.7393 18.7334 17.3179 18.4645C17.8633 18.211 18.3348 17.8454 18.6418 17.3024C18.8853 16.8711 19.0536 16.3777 19.0521 15.9575C19.0511 15.6909 18.9753 15.462 18.7909 15.3287L15.1694 13.2383C14.7689 13.0615 14.2532 13.7423 13.8359 14.2934C13.6562 14.5309 13.49 14.7501 13.3222 14.9178C13.0818 15.1576 12.8147 15.3632 12.5146 15.4758C12.1669 15.6065 11.7993 15.6122 11.4151 15.4152L11.4155 15.4146C9.68791 14.5337 8.35342 13.4881 7.27056 12.3374Z" fill="white"/>
</svg>
