<svg width="20" height="20" viewBox="0 0 20 20" fill="none" xmlns="http://www.w3.org/2000/svg">
<path d="M1.84848 7.43913H2.46175V6.01839C2.46175 4.36816 3.30663 2.86605 4.66815 1.77539C6.03497 0.67985 7.92244 0 10 0C12.0778 0 13.965 0.67985 15.3323 1.77523C16.6936 2.86589 17.5385 4.36816 17.5385 6.01823V7.43897H18.1517C18.6605 7.43897 19.1229 7.59847 19.4575 7.85563C19.7921 8.11279 20 8.46777 20 8.85856V18.5802C20 18.971 19.7923 19.3262 19.4575 19.5832C19.1227 19.8402 18.6605 19.9998 18.1517 19.9998H1.84848C1.33948 19.9998 0.877305 19.8403 0.542488 19.5832C0.207671 19.326 0 18.9714 0 18.5804V8.85872C0 8.46794 0.207883 8.11279 0.542488 7.85579C0.877305 7.5988 1.33948 7.43913 1.84848 7.43913ZM9.32401 14.2091L8.43611 15.9961H11.5643L10.7413 14.1846C11.2636 13.9779 11.6207 13.5596 11.6207 13.0773C11.6207 12.39 10.8949 11.8327 10.0002 11.8327C9.10532 11.8327 8.37953 12.3901 8.37953 13.0773C8.37932 13.5794 8.76648 14.0122 9.32401 14.2091ZM3.76203 7.43913H16.2382V6.01839C16.2382 4.63314 15.5334 3.37581 14.3975 2.46598C13.2676 1.56071 11.7112 0.998861 10 0.998861C8.28883 0.998861 6.73236 1.56071 5.60246 2.46582C4.46684 3.37565 3.76181 4.63298 3.76181 6.01823L3.76203 7.43913ZM18.1517 8.43799H1.84848C1.69845 8.43799 1.56177 8.48551 1.46217 8.56201C1.36258 8.63851 1.3007 8.74365 1.3007 8.85872V18.5804C1.3007 18.6955 1.36258 18.8006 1.46217 18.877C1.56177 18.9536 1.69866 19.001 1.84848 19.001H18.1519C18.302 19.001 18.4389 18.9536 18.5382 18.877C18.6378 18.8005 18.6997 18.6955 18.6997 18.5804V8.85872C18.6997 8.74365 18.6378 8.63851 18.5382 8.56201C18.4384 8.48551 18.3018 8.43799 18.1517 8.43799Z" fill="white"/>
</svg>
