<svg width="36" height="36" viewBox="0 0 36 36" fill="none" xmlns="http://www.w3.org/2000/svg">
<path fill-rule="evenodd" clip-rule="evenodd" d="M20.4398 21.5447L17.6777 18.7825L14.9155 21.5447C14.6117 21.8485 14.1162 21.8502 13.8107 21.5447C13.5052 21.2392 13.5068 20.7436 13.8107 20.4398L16.5728 17.6777L13.8107 14.9155C13.5052 14.61 13.5068 14.1145 13.8107 13.8107C14.1145 13.5068 14.61 13.5052 14.9155 13.8107L17.6777 16.5728L20.4398 13.8107C20.7436 13.5068 21.2392 13.5052 21.5447 13.8107C21.8502 14.1162 21.8485 14.6117 21.5447 14.9155L18.7825 17.6777L21.5447 20.4398C21.8502 20.7453 21.8485 21.2408 21.5447 21.5447C21.2408 21.8485 20.7453 21.8502 20.4398 21.5447ZM26.5165 8.83883C21.6347 3.95704 13.7223 3.95538 8.83883 8.83883C3.95538 13.7223 3.95704 21.6347 8.83883 26.5165C13.7206 31.3983 21.633 31.4 26.5165 26.5165C31.4 21.633 31.3983 13.7206 26.5165 8.83883Z" fill="#FF3C3C"/>
</svg>
