<svg width="25" height="25" viewBox="0 0 25 25" fill="none" xmlns="http://www.w3.org/2000/svg">
<path d="M8.94144 4.26047C10.5247 1.42016 11.3164 0 12.5 0C13.6836 0 14.4752 1.42015 16.0585 4.26046L16.4681 4.99528C16.9181 5.80241 17.143 6.20598 17.4939 6.47225C17.8446 6.73853 18.2814 6.83737 19.1551 7.03505L19.9506 7.21503C23.0251 7.91069 24.5625 8.25852 24.9282 9.43465C25.294 10.6107 24.246 11.8364 22.1499 14.2874L21.6076 14.9215C21.012 15.618 20.7141 15.9662 20.5801 16.3971C20.4462 16.828 20.4912 17.2926 20.5812 18.222L20.6632 19.068C20.9801 22.3382 21.1386 23.9733 20.1811 24.7002C19.2235 25.4271 17.7841 24.7643 14.9054 23.439L14.1606 23.096C13.3426 22.7193 12.9336 22.531 12.5 22.531C12.0664 22.531 11.6574 22.7193 10.8394 23.096L10.0946 23.439C7.21584 24.7643 5.77647 25.4271 4.81893 24.7002C3.8614 23.9733 4.01985 22.3382 4.33675 19.068L4.41872 18.222C4.50878 17.2926 4.55381 16.828 4.41982 16.3971C4.28585 15.9662 3.98803 15.618 3.3924 14.9215L2.85012 14.2874C0.754064 11.8364 -0.293972 10.6107 0.0717773 9.43465C0.437527 8.25852 1.97482 7.91069 5.04942 7.21503L5.84486 7.03505C6.71856 6.83737 7.15541 6.73853 7.50617 6.47225C7.85693 6.20598 8.0819 5.80242 8.53183 4.99528L8.94144 4.26047Z" fill="currentColor"/>
</svg>
