<svg width="25" height="25" viewBox="0 0 25 25" fill="none" xmlns="http://www.w3.org/2000/svg">
<path fill-rule="evenodd" clip-rule="evenodd" d="M10.3598 1.302H14.6408C16.0654 1.30198 17.2136 1.30196 18.1166 1.42338C19.0542 1.54944 19.8437 1.81912 20.4707 2.44612C21.0978 3.07312 21.3674 3.86257 21.4935 4.80018C21.6149 5.70327 21.6149 6.85152 21.6149 8.2761V16.7238C21.6149 18.1484 21.6149 19.2966 21.4935 20.1997C21.3674 21.1373 21.0978 21.9267 20.4707 22.5538C19.8437 23.1808 19.0542 23.4504 18.1166 23.5765C17.2136 23.6978 16.0653 23.6978 14.6408 23.6978H10.3598C8.93522 23.6978 7.78696 23.6978 6.88387 23.5765C5.94626 23.4504 5.1568 23.1808 4.52981 22.5538C3.90281 21.9267 3.63313 21.1373 3.50707 20.1997C3.46676 19.8998 3.43983 19.573 3.42185 19.218C3.38114 19.0895 3.37322 18.9491 3.40524 18.8091C3.38566 18.1925 3.38567 17.499 3.38569 16.7238V8.2761C3.38567 6.85152 3.38565 5.70327 3.50707 4.80018C3.63313 3.86257 3.90281 3.07312 4.52981 2.44612C5.1568 1.81912 5.94626 1.54944 6.88386 1.42338C7.78696 1.30196 8.9352 1.30198 10.3598 1.302ZM4.97606 19.0094C4.99189 19.3779 5.01672 19.702 5.05563 19.9915C5.1584 20.7559 5.34636 21.1605 5.63466 21.4489C5.92296 21.7372 6.32772 21.9251 7.09207 22.0279C7.87889 22.1337 8.92172 22.1353 10.417 22.1353H14.5836C16.0788 22.1353 17.1216 22.1337 17.9085 22.0279C18.6728 21.9251 19.0776 21.7372 19.3659 21.4489C19.6541 21.1605 19.8422 20.7559 19.9449 19.9915C20.0312 19.3495 20.0482 18.5372 20.0515 17.4478H14.3232V20.3446C14.3232 20.3537 14.3232 20.3629 14.3232 20.3726C14.3234 20.4886 14.3236 20.6537 14.3014 20.7955C14.2744 20.9689 14.1852 21.3035 13.8387 21.507C13.505 21.7029 13.1785 21.6301 13.0234 21.5819C12.8882 21.5398 12.7399 21.4692 12.6292 21.4166C12.6205 21.4124 12.612 21.4084 12.6037 21.4044L11.4586 20.8604L10.3135 21.4044C10.3052 21.4084 10.2967 21.4123 10.288 21.4166C10.1774 21.4692 10.0291 21.5398 9.89379 21.5819C9.73865 21.6301 9.41224 21.7029 9.07852 21.507C8.73199 21.3035 8.64284 20.9689 8.61575 20.7955C8.59358 20.6537 8.59383 20.4886 8.594 20.3726C8.59401 20.3629 8.59403 20.3537 8.59403 20.3446V17.4478H8.22712C7.20811 17.4478 6.85185 17.4545 6.57885 17.5277C5.82956 17.7285 5.23223 18.2854 4.97606 19.0094ZM10.1565 17.4478V19.7491L10.9371 19.3784C10.9389 19.3774 10.9421 19.3759 10.9462 19.3738C10.9973 19.3476 11.2124 19.2376 11.4586 19.2376C11.7048 19.2376 11.9199 19.3476 11.971 19.3738C11.9752 19.3759 11.9782 19.3774 11.9802 19.3784L12.7607 19.7491V17.4478H10.1565ZM8.22712 15.8853C8.18632 15.8853 8.14612 15.8853 8.10651 15.8853C7.25446 15.885 6.67305 15.8848 6.17445 16.0185C5.72863 16.1379 5.3151 16.333 4.94819 16.5894V8.33325C4.94819 6.83802 4.94985 5.7952 5.05563 5.00838C5.1584 4.24403 5.34636 3.83926 5.63466 3.55097C5.92296 3.26268 6.32772 3.07471 7.09207 2.97195C7.87889 2.86616 8.92172 2.8645 10.417 2.8645H14.5836C16.0788 2.8645 17.1216 2.86616 17.9085 2.97195C18.6728 3.07471 19.0776 3.26268 19.3659 3.55097C19.6541 3.83926 19.8422 4.24403 19.9449 5.00838C20.0507 5.7952 20.0524 6.83802 20.0524 8.33325V15.8853H8.22712ZM7.55236 7.29159C7.55236 6.86012 7.90213 6.51034 8.33361 6.51034H16.667C17.0984 6.51034 17.4482 6.86012 17.4482 7.29159C17.4482 7.72305 17.0984 8.07284 16.667 8.07284H8.33361C7.90213 8.07284 7.55236 7.72305 7.55236 7.29159ZM7.55236 10.9374C7.55236 10.506 7.90213 10.1562 8.33361 10.1562H13.542C13.9734 10.1562 14.3232 10.506 14.3232 10.9374C14.3232 11.3689 13.9734 11.7187 13.542 11.7187H8.33361C7.90213 11.7187 7.55236 11.3689 7.55236 10.9374Z" fill="currentColor"/>
</svg>
