<svg width="25" height="25" viewBox="0 0 25 25" fill="none" xmlns="http://www.w3.org/2000/svg">
<g clip-path="url(#clip0_29_586)">
<path d="M18.4094 5.83962C16.4395 4.913 14.4704 3.98453 12.5021 3.0542L0.143799 8.8792L2.25838 9.90003L2.08338 9.92816V20.8334H3.12505V10.8063L3.87505 10.6771L4.16672 10.8177V16.3261C4.16672 17.2782 9.58963 20.0063 10.6761 20.5438C11.2409 20.821 11.8626 20.9629 12.4918 20.9582C13.121 20.9535 13.7404 20.8024 14.3011 20.5167C20.8334 17.1729 20.8334 16.5573 20.8334 16.3261V10.8177L24.848 8.88337C24.848 8.88337 20.8896 7.00732 18.4094 5.83962ZM19.7917 16.15C17.8792 17.423 15.8869 18.5719 13.8271 19.5896C13.4113 19.8018 12.9517 19.9142 12.4848 19.9178C12.0179 19.9215 11.5566 19.8162 11.1375 19.6104C9.07034 18.6269 7.0873 17.4755 5.20838 16.1677V11.3188L12.5 14.8323L19.7917 11.3188V16.15ZM12.5 13.6782L5.64172 10.3729L12.3803 9.21149L12.2032 8.18337L4.02609 9.59378L2.56463 8.88962L12.499 4.20732C13.3584 4.6167 21.3771 8.38857 22.4386 8.88857L12.5 13.6782Z" fill="currentColor"/>
</g>
<defs>
<clipPath id="clip0_29_586">
<rect width="25" height="25" fill="currentColor"/>
</clipPath>
</defs>
</svg>
